<svg width="250" height="250" viewBox="0 0 250 250" fill="none" xmlns="http://www.w3.org/2000/svg">
<path d="M163.719 25.7344C164.02 24.7536 164.126 23.723 164.029 22.7014C163.932 21.6798 163.635 20.6873 163.155 19.7804C162.675 18.8736 162.021 18.0703 161.23 17.4163C160.439 16.7622 159.528 16.2704 158.547 15.9688C157.566 15.6671 156.535 15.5616 155.514 15.6583C154.492 15.755 153.5 16.0519 152.593 16.5322C151.686 17.0124 150.883 17.6666 150.229 18.4573C149.575 19.248 149.083 20.1598 148.781 21.1406L86.2812 224.266C85.672 226.247 85.8747 228.388 86.8446 230.22C87.8145 232.051 89.4722 233.422 91.4531 234.031C93.4339 234.641 95.5756 234.438 97.407 233.468C99.2384 232.498 100.61 230.84 101.219 228.86L163.719 25.7344ZM75.8437 64.7813C76.5713 65.507 77.1485 66.3691 77.5424 67.3183C77.9362 68.2674 78.1389 69.2849 78.1389 70.3126C78.1389 71.3402 77.9362 72.3577 77.5424 73.3068C77.1485 74.256 76.5713 75.1181 75.8437 75.8438L26.6719 125L75.8437 174.156C77.3107 175.623 78.1348 177.613 78.1348 179.688C78.1348 181.762 77.3107 183.752 75.8437 185.219C74.3767 186.686 72.3871 187.51 70.3125 187.51C68.2379 187.51 66.2482 186.686 64.7812 185.219L10.0938 130.531C9.36625 129.806 8.78902 128.944 8.39517 127.994C8.00131 127.045 7.79858 126.028 7.79858 125C7.79858 123.972 8.00131 122.955 8.39517 122.006C8.78902 121.057 9.36625 120.195 10.0938 119.469L64.7812 64.7813C65.5069 64.0537 66.3691 63.4765 67.3182 63.0827C68.2673 62.6888 69.2849 62.4861 70.3125 62.4861C71.3401 62.4861 72.3576 62.6888 73.3067 63.0827C74.2559 63.4765 75.118 64.0537 75.8437 64.7813ZM174.156 64.7813C173.429 65.507 172.851 66.3691 172.457 67.3183C172.064 68.2674 171.861 69.2849 171.861 70.3126C171.861 71.3402 172.064 72.3577 172.457 73.3068C172.851 74.256 173.429 75.1181 174.156 75.8438L223.328 125L174.156 174.156C173.43 174.883 172.854 175.745 172.46 176.694C172.067 177.643 171.865 178.66 171.865 179.688C171.865 180.715 172.067 181.732 172.46 182.681C172.854 183.63 173.43 184.493 174.156 185.219C174.882 185.945 175.745 186.521 176.694 186.915C177.643 187.308 178.66 187.51 179.687 187.51C180.715 187.51 181.732 187.308 182.681 186.915C183.63 186.521 184.492 185.945 185.219 185.219L239.906 130.531C240.634 129.806 241.211 128.944 241.605 127.994C241.999 127.045 242.201 126.028 242.201 125C242.201 123.972 241.999 122.955 241.605 122.006C241.211 121.057 240.634 120.195 239.906 119.469L185.219 64.7813C184.493 64.0537 183.631 63.4765 182.682 63.0827C181.732 62.6888 180.715 62.4861 179.687 62.4861C178.66 62.4861 177.642 62.6888 176.693 63.0827C175.744 63.4765 174.882 64.0537 174.156 64.7813Z" fill="#61DAFB"/>
</svg>
